<svg id="Layer_1" data-name="Layer 1" xmlns="http://www.w3.org/2000/svg" viewBox="0 0 600 600"><defs><style>.cls-1{fill:#2f1fff;}.cls-2{fill:#fff;}.cls-3{fill:none;}</style></defs><circle class="cls-1" cx="300" cy="300" r="225.77"/><path class="cls-2" d="M204.59,136.51c3.12.67,6.32,1.11,9.36,2,16.18,4.95,26.45,20.2,25.55,37.75-.8,15.73-13.42,30.07-29.19,33.18-20.33,4-40-9-43.45-29.52-4.15-24.66,14.49-41.35,31.79-42.79a21.42,21.42,0,0,0,2.91-.66Z"/><path class="cls-2" d="M256.67,352.1c10.07.25,18.46-3,25.41-10.24,2.3-2.39,4.95-4.45,7.45-6.64,9.61-8.44,20.42-9.21,31.89-4.69a36.64,36.64,0,0,1,22.8,33.76,24.3,24.3,0,0,1-5.82,15.52c-3,3.76-6.24,7.4-9.48,11-4.46,4.94-7.55,10.54-7.78,17.26a159.1,159.1,0,0,0,.31,17.74c.33,4.33,2.8,7.9,5.7,11.1s5.41,6.26,8.28,9.22c16.12,16.64,7.25,38.23-4.29,47.8a36.71,36.71,0,0,1-59.65-21.28c-1.6-8.13-.34-15.76,4.87-22.25A169.16,169.16,0,0,1,290,435.43,22.25,22.25,0,0,0,296.62,420a53.5,53.5,0,0,0-.65-13.21,30.13,30.13,0,0,0-4.38-10.06,137.48,137.48,0,0,0-9.09-11.68c-4.66-5.68-10.77-8.4-18-9.19-8.32-.9-16.49-.76-24.45,2a6.88,6.88,0,0,0-3.49,2.91A36.89,36.89,0,0,1,200.85,400a36.38,36.38,0,0,1-32.67-29.35c-2.64-14.8,2.27-28.91,15.63-37.53,5.63-3.62,8.53-8.1,9.06-14.32a93.12,93.12,0,0,0,.1-13.57c-.38-6.59-3.88-11.69-8.54-16.14-2.55-2.43-4.89-5.09-7.42-7.55-13.8-13.43-10.86-30.42-2.57-42a36.63,36.63,0,0,1,65.84,15.78c1.51,8.74-.91,16.09-6.5,22.65-2.81,3.3-5.62,6.6-8.59,9.76-5.4,5.73-7.66,12.71-8,20.34a83.63,83.63,0,0,0,.56,12.95c.61,5.25,2.56,9.71,7.55,12.68a29.07,29.07,0,0,1,10.9,12.3,6.23,6.23,0,0,0,5,3.79C246.37,350.51,251.52,351.31,256.67,352.1Z"/><path class="cls-2" d="M413,238.27c19.17-.75,36.83,16,36.55,36.93a36.61,36.61,0,0,1-73.22-.41C376.27,253.4,394.4,237.48,413,238.27Z"/><path class="cls-2" d="M347.16,261.05a36.51,36.51,0,0,1,2.62,13.69,36.77,36.77,0,0,1-33.84,36.76c-1,.08-2,.13-3,.13a36.51,36.51,0,0,1-7.06-.68c-.73-.13-1.44-.3-2.17-.48l-.07,0c-.74-.2-1.49-.4-2.2-.65s-1.26-.43-1.89-.68l-.4-.15c-.61-.26-1.21-.51-1.79-.79s-1.34-.65-2-1a33.32,33.32,0,0,1-3.75-2.35c-.61-.43-1.21-.88-1.77-1.34a1.69,1.69,0,0,1-.25-.2c-.45-.35-.88-.73-1.31-1.13a36.17,36.17,0,0,1-5.93-6.78c-.07-.08-.12-.18-.2-.28v0a28.29,28.29,0,0,1-2.24-3.88v0a40.6,40.6,0,0,1-1.77-4.18c-.33-1-.63-1.94-.88-2.93V284c-.18-.61-.3-1.21-.43-1.82a36.31,36.31,0,0,1-.73-7.28v-.13a13.34,13.34,0,0,1,.18-2.45,4.78,4.78,0,0,1,0-.53v-.07a5.86,5.86,0,0,1,.1-.58.27.27,0,0,1,0-.15,36.5,36.5,0,0,1,21.2-29.35c.16-.16.28-.31.41-.46a.5.5,0,0,0,.12-.17c5.3-6.66,5.12-27.19-.12-33.79-8.85-11.05-21.94-18.64-21.94-33.67a36.84,36.84,0,1,1,73.68,0c0,14.25-13,21.29-19.92,32.71-4.64,7.56-5.3,28.27-.13,35.7A36.81,36.81,0,0,1,347.16,261.05Z"/><rect class="cls-3" width="600" height="600"/></svg>