<svg id="Layer_1" data-name="Layer 1" xmlns="http://www.w3.org/2000/svg" viewBox="0 0 512.77 181.44"><defs><style>.cls-1{fill:#2f1fff;}.cls-2{fill:#fff;}</style></defs><g id="Layer_2" data-name="Layer 2"><g id="Layer_1-2" data-name="Layer 1-2"><circle class="cls-1" cx="90.72" cy="90.72" r="90.72"/><path class="cls-2" d="M52.38,25c1.26.27,2.54.45,3.76.82A14.74,14.74,0,1,1,37.22,42.48a14.53,14.53,0,0,1,11.53-17c.42-.08.83-.14,1.25-.18A6.67,6.67,0,0,0,51.17,25Z"/><path class="cls-2" d="M73.31,111.66a13,13,0,0,0,10.21-4.12,39.74,39.74,0,0,1,3-2.67c3.87-3.39,8.21-3.7,12.82-1.88a14.7,14.7,0,0,1,9.16,13.56,9.78,9.78,0,0,1-2.34,6.24c-1.22,1.52-2.5,3-3.81,4.42a10.74,10.74,0,0,0-3.12,6.93,65.21,65.21,0,0,0,.12,7.13,7.67,7.67,0,0,0,2.29,4.46c1.12,1.23,2.17,2.51,3.33,3.7,6.48,6.69,2.91,15.37-1.72,19.21a14.76,14.76,0,0,1-24-8.55,10.49,10.49,0,0,1,2-8.94,69.23,69.23,0,0,1,5.48-6A9,9,0,0,0,89.36,139a21,21,0,0,0-.26-5.31,12,12,0,0,0-1.76-4A53.52,53.52,0,0,0,83.69,125a10.31,10.31,0,0,0-7.25-3.7,22.36,22.36,0,0,0-9.82.79,2.73,2.73,0,0,0-1.4,1.17A14.83,14.83,0,0,1,50.88,131,14.61,14.61,0,0,1,37.75,119.1c-1.06-5.95.91-11.62,6.28-15.08a7.21,7.21,0,0,0,3.64-5.76,35.41,35.41,0,0,0,0-5.45,9.68,9.68,0,0,0-3.43-6.48l-3-3c-5.54-5.39-4.36-12.22-1-16.89A14.72,14.72,0,0,1,66.7,72.78a10.59,10.59,0,0,1-2.62,9.11c-1.13,1.32-2.26,2.65-3.45,3.92A12.12,12.12,0,0,0,57.43,94a33.42,33.42,0,0,0,.23,5.2,6.29,6.29,0,0,0,3,5.1A11.63,11.63,0,0,1,65,109.22a2.54,2.54,0,0,0,2,1.53Z"/><path class="cls-2" d="M136.14,65.92c7.7-.3,14.8,6.42,14.69,14.83a14.71,14.71,0,0,1-29.42-.16C121.37,72,128.66,65.6,136.14,65.92Z"/><path class="cls-2" d="M109.67,75.07A14.82,14.82,0,0,1,97.13,95.34c-.4,0-.79.06-1.21.06a15.11,15.11,0,0,1-2.84-.28c-.29-.05-.57-.12-.87-.19h0c-.29-.08-.6-.16-.88-.26l-.76-.28-.16-.06c-.24-.1-.49-.2-.72-.31l-.8-.41a13.1,13.1,0,0,1-1.51-.94c-.24-.17-.49-.36-.71-.54l-.1-.08c-.18-.14-.36-.29-.53-.45a15.1,15.1,0,0,1-2.38-2.73.44.44,0,0,1-.08-.11h0a12.13,12.13,0,0,1-.9-1.56h0A15.36,15.36,0,0,1,82,85.52c-.13-.39-.25-.78-.36-1.18h0c-.07-.24-.12-.49-.17-.73a15.16,15.16,0,0,1-.29-2.93v-.05a5.61,5.61,0,0,1,.07-1v-.21h0v-.29a14.64,14.64,0,0,1,8.52-11.79,1.46,1.46,0,0,0,.16-.19A.23.23,0,0,0,90,67c2.13-2.67,2.06-10.92,0-13.57C86.38,49,81.12,45.94,81.12,39.9a14.81,14.81,0,1,1,29.61-.77c0,.26,0,.51,0,.77,0,5.72-5.23,8.55-8,13.14-1.86,3-2.13,11.36,0,14.35A14.8,14.8,0,0,1,109.67,75.07Z"/><path class="cls-2" d="M249.14,102.24q-6.15,5.13-17.57,5.14H217v25.19H202.44V62.51h30.08q10.39,0,16.59,5.41t6.18,16.78Q255.29,97.1,249.14,102.24ZM238,77c-1.86-1.55-4.46-2.32-7.8-2.33H217V95.3h13.19q5,0,7.8-2.52c1.87-1.68,2.79-4.35,2.78-8S239.83,78.56,238,77Z"/><path class="cls-2" d="M286.46,101.05a21.7,21.7,0,0,0,5.41-1.18c1.95-.83,2.92-2.12,2.92-3.85,0-2.13-.75-3.59-2.24-4.4A14.19,14.19,0,0,0,286,90.41q-4.86,0-6.89,2.37a9.86,9.86,0,0,0-1.92,4.76h-13.1a19.74,19.74,0,0,1,3.81-11.17q5.4-6.86,18.53-6.85a33,33,0,0,1,15.18,3.38q6.63,3.38,6.63,12.74V119.4q0,2.47.1,6a7.41,7.41,0,0,0,.81,3.61,4.67,4.67,0,0,0,2,1.57v2H296.41a15.84,15.84,0,0,1-.86-3c-.16-.92-.28-2-.38-3.14a28,28,0,0,1-6.5,5.18,19.57,19.57,0,0,1-9.95,2.52,17.09,17.09,0,0,1-11.68-4q-4.62-4-4.62-11.39,0-9.55,7.42-13.83,4.08-2.32,12-3.33Zm8.28,6.33a15.22,15.22,0,0,1-2.62,1.3,20.68,20.68,0,0,1-3.64.93l-3.08.57a20.63,20.63,0,0,0-6.23,1.85,6.2,6.2,0,0,0-3.2,5.76c0,2.31.65,4,1.95,5a7.43,7.43,0,0,0,4.76,1.55,14.17,14.17,0,0,0,8.18-2.57q3.74-2.56,3.88-9.37Z"/><path class="cls-2" d="M334,74.58H320.27V62.08H334Zm-13.74,6.18H334v51.81H320.27Z"/><path class="cls-2" d="M375.9,79.55l1.17.07V93.5c-.86-.1-1.62-.16-2.28-.19s-1.21,0-1.62,0q-8.18,0-11,5.32c-1,2-1.57,5.07-1.57,9.22v24.77H347V80.76h12.93v9a28.74,28.74,0,0,1,5.47-7.08,14.83,14.83,0,0,1,9.88-3.19C375.49,79.5,375.69,79.52,375.9,79.55Z"/><path class="cls-2" d="M386.1,62.51H401v43q0,7.21,1.7,10.54,2.66,5.9,11.56,5.89t11.51-5.89q1.69-3.33,1.7-10.54v-43h14.88v43.06q0,11.18-3.46,17.4-6.47,11.4-24.63,11.4T389.56,123q-3.46-6.23-3.46-17.4Z"/><path class="cls-2" d="M467.59,132.57h-17l22.53-35.7L451.67,62.51h17.49l12.5,22.81L494.5,62.51h16.92L490,96.3l22.77,36.27H495l-13.31-23.89Z"/></g></g></svg>