<svg xmlns="http://www.w3.org/2000/svg" viewBox="0 0 512.75 181.44"><defs><style>.cls-1{fill:#2f1fff;}.cls-2{fill:#fff;}</style></defs><g id="Layer_2" data-name="Layer 2"><g id="Layer_1-2" data-name="Layer 1"><circle class="cls-1" cx="90.72" cy="90.72" r="90.72"/><path class="cls-2" d="M52.38,25c1.26.27,2.54.45,3.76.82A14.74,14.74,0,1,1,37.22,42.48,14.53,14.53,0,0,1,50,25.29,6.94,6.94,0,0,0,51.17,25Z"/><path class="cls-2" d="M73.31,111.66a13,13,0,0,0,10.21-4.12c.92-1,2-1.78,3-2.67,3.87-3.39,8.21-3.7,12.82-1.88a14.7,14.7,0,0,1,9.16,13.56,9.8,9.8,0,0,1-2.34,6.24c-1.22,1.52-2.5,3-3.81,4.42a10.78,10.78,0,0,0-3.12,6.93,62.84,62.84,0,0,0,.12,7.13,7.68,7.68,0,0,0,2.29,4.46c1.12,1.23,2.17,2.51,3.33,3.7,6.48,6.69,2.91,15.37-1.72,19.21a14.76,14.76,0,0,1-24-8.55,10.48,10.48,0,0,1,2-8.94,69.22,69.22,0,0,1,5.48-6A8.94,8.94,0,0,0,89.36,139a21,21,0,0,0-.26-5.31,12,12,0,0,0-1.76-4,53.1,53.1,0,0,0-3.65-4.69,10.31,10.31,0,0,0-7.25-3.7,22.47,22.47,0,0,0-9.82.79,2.74,2.74,0,0,0-1.4,1.17,14.82,14.82,0,0,1-14.34,7.72A14.61,14.61,0,0,1,37.75,119.1c-1.06-5.95.91-11.62,6.28-15.08a7.19,7.19,0,0,0,3.64-5.76,36.71,36.71,0,0,0,0-5.45,9.66,9.66,0,0,0-3.43-6.48c-1-1-2-2-3-3-5.54-5.39-4.36-12.22-1-16.89a14.72,14.72,0,0,1,26.46,6.34,10.6,10.6,0,0,1-2.62,9.11c-1.13,1.32-2.26,2.65-3.45,3.92a12.13,12.13,0,0,0-3.2,8.17,33.48,33.48,0,0,0,.23,5.2,6.29,6.29,0,0,0,3,5.1,11.65,11.65,0,0,1,4.38,4.94,2.54,2.54,0,0,0,2,1.53Z"/><path class="cls-2" d="M136.14,65.92c7.7-.3,14.8,6.42,14.69,14.83a14.71,14.71,0,0,1-29.42-.16C121.37,72,128.66,65.6,136.14,65.92Z"/><path class="cls-2" d="M109.67,75.07a14.68,14.68,0,0,1,1.06,5.5,14.79,14.79,0,0,1-13.6,14.77c-.4,0-.79.06-1.21.06a14.86,14.86,0,0,1-2.84-.28c-.29-.05-.57-.12-.87-.19h0c-.29-.08-.6-.16-.88-.26l-.76-.28-.16-.06c-.24-.1-.49-.2-.72-.31l-.8-.41a13.65,13.65,0,0,1-1.51-.94c-.24-.17-.49-.36-.71-.54l-.1-.08c-.18-.14-.36-.29-.53-.45a15.1,15.1,0,0,1-2.38-2.73,1,1,0,0,1-.08-.11h0a12.84,12.84,0,0,1-.9-1.56h0a15.36,15.36,0,0,1-.71-1.68c-.13-.39-.25-.78-.36-1.18v0c-.07-.24-.12-.49-.17-.73a14.85,14.85,0,0,1-.29-2.93v-.05a5.32,5.32,0,0,1,.07-1,1.48,1.48,0,0,1,0-.21v0a1.85,1.85,0,0,1,0-.23.13.13,0,0,1,0-.06,14.66,14.66,0,0,1,8.52-11.79,1.46,1.46,0,0,0,.16-.19A.21.21,0,0,0,90,67c2.13-2.67,2.06-10.92,0-13.57C86.38,49,81.12,45.94,81.12,39.9a14.81,14.81,0,1,1,29.61,0c0,5.72-5.23,8.55-8,13.14-1.86,3-2.13,11.36,0,14.35A14.8,14.8,0,0,1,109.67,75.07Z"/><path d="M249.14,102.24q-6.15,5.13-17.57,5.14H217v25.19H202.44V62.51h30.08q10.39,0,16.59,5.41t6.18,16.78Q255.29,97.1,249.14,102.24ZM238,77q-2.79-2.32-7.8-2.33H217V95.3h13.19q5,0,7.8-2.52t2.78-8Q240.75,79.34,238,77Z"/><path d="M286.46,101.05a21.5,21.5,0,0,0,5.41-1.18q2.92-1.25,2.92-3.85c0-2.13-.75-3.59-2.24-4.4A14.15,14.15,0,0,0,286,90.41q-4.86,0-6.89,2.37a9.87,9.87,0,0,0-1.92,4.76H264.09a19.76,19.76,0,0,1,3.81-11.17q5.4-6.86,18.53-6.85a33.06,33.06,0,0,1,15.18,3.38q6.63,3.38,6.63,12.74V119.4q0,2.47.1,6a7.35,7.35,0,0,0,.81,3.61,4.73,4.73,0,0,0,2,1.57v2H296.41a15.46,15.46,0,0,1-.86-2.95c-.16-.92-.28-2-.38-3.14a27.82,27.82,0,0,1-6.5,5.18,19.65,19.65,0,0,1-9.95,2.52,17.12,17.12,0,0,1-11.68-4q-4.62-4-4.62-11.39,0-9.56,7.42-13.83,4.08-2.33,12-3.33Zm8.28,6.33a14.84,14.84,0,0,1-2.62,1.3,21.2,21.2,0,0,1-3.64.93l-3.08.57a20.66,20.66,0,0,0-6.23,1.85,6.19,6.19,0,0,0-3.2,5.76q0,3.46,1.95,5a7.46,7.46,0,0,0,4.76,1.55,14.18,14.18,0,0,0,8.18-2.57q3.74-2.57,3.88-9.37Z"/><path d="M334,74.58H320.27V62.08H334Zm-13.74,6.18H334v51.81H320.27Z"/><path d="M375.9,79.55l1.17.07V93.5c-.86-.1-1.62-.16-2.28-.19s-1.21,0-1.62,0q-8.18,0-11,5.32c-1,2-1.57,5.07-1.57,9.22v24.77H347V80.76h12.93v9a28.53,28.53,0,0,1,5.47-7.08,14.83,14.83,0,0,1,9.88-3.19A5.6,5.6,0,0,1,375.9,79.55Z"/><path d="M386.1,62.51H401v43q0,7.21,1.7,10.54,2.65,5.9,11.56,5.89t11.51-5.89q1.69-3.33,1.7-10.54v-43h14.88v43.06q0,11.18-3.46,17.4-6.47,11.4-24.63,11.4T389.56,123q-3.46-6.23-3.46-17.4Z"/><path d="M467.59,132.57h-17l22.53-35.7L451.67,62.51h17.49l12.5,22.81L494.5,62.51h16.92L490,96.3l22.77,36.27H495l-13.31-23.89Z"/></g></g></svg>